<svg xmlns="http://www.w3.org/2000/svg" width="24.98" height="24.99" viewBox="0 0 24.98 24.99">
  <g id="Group_768" data-name="Group 768" transform="translate(-126 -3195)">
    <path id="JNT1.001_Icons_25px-bathroom" d="M23.44,10.94H4.69V3.91a3.108,3.108,0,0,1,.33-1.26A2.056,2.056,0,0,1,7.03,1.56,2.081,2.081,0,0,1,9.05,2.65a3.542,3.542,0,0,1,.33,1.26v.78h1.56V3.91A3.773,3.773,0,0,0,7.03,0a3.764,3.764,0,0,0-3.9,3.91v7.03H1.56A1.562,1.562,0,0,0,0,12.5v1.56a1.562,1.562,0,0,0,1.56,1.56v4.69a3.118,3.118,0,0,0,3.12,3.12v.78a.78.78,0,1,0,1.56,0v-.78h12.5v.78a.78.78,0,1,0,1.56,0v-.78a3.118,3.118,0,0,0,3.12-3.12V15.62a1.562,1.562,0,0,0,1.56-1.56V12.5A1.532,1.532,0,0,0,23.44,10.94Zm-1.57,9.37a1.562,1.562,0,0,1-1.56,1.56H4.69a1.562,1.562,0,0,1-1.56-1.56V15.62H21.88v4.69Zm1.57-6.25H1.56V12.5H23.43v1.56Z" transform="translate(126 3195)" fill="#419884"/>
  </g>
</svg>
