<svg xmlns="http://www.w3.org/2000/svg" width="24.99" height="25" viewBox="0 0 24.99 25">
  <g id="Group_776" data-name="Group 776" transform="translate(-407 -3195)">
    <path id="JNT1.001_Icons_25px-floors" d="M22.66,0H17.58V5.86H11.72v5.86H5.86v5.86H0v5.08A2.343,2.343,0,0,0,2.34,25H22.65a2.343,2.343,0,0,0,2.34-2.34V2.34A2.328,2.328,0,0,0,22.66,0Zm.78,22.66a.781.781,0,0,1-.78.78H2.34a.781.781,0,0,1-.78-.78V19.14H7.42V13.28h5.86V7.42h5.86V1.56h3.52a.781.781,0,0,1,.78.78V22.66Z" transform="translate(407 3195)" fill="#419884"/>
  </g>
</svg>
