<svg xmlns="http://www.w3.org/2000/svg" width="24.96" height="25" viewBox="0 0 24.96 25">
  <g id="Group_788" data-name="Group 788" transform="translate(-478 -3195)">
    <path id="JNT1.001_Icons_25px-garden" d="M24.2,23.44H17.18V15.01a3.117,3.117,0,0,0,1.95.69,3.049,3.049,0,0,0,1.56-.42,3.121,3.121,0,0,0,1.14-4.26c-.01-.02-.02-.03-.03-.05h.06a3.12,3.12,0,0,0,0-6.24H21.8c.01-.02.02-.03.03-.05A3.121,3.121,0,0,0,20.69.42,3.049,3.049,0,0,0,19.13,0a3.1,3.1,0,0,0-2.7,1.56.219.219,0,0,1-.03.05.219.219,0,0,0-.03-.05A3.125,3.125,0,0,0,13.67,0a3.049,3.049,0,0,0-1.56.42,3.121,3.121,0,0,0-1.14,4.26c.01.02.02.03.03.05h-.06a3.12,3.12,0,1,0,0,6.24H11c-.01.02-.02.03-.03.05a3.116,3.116,0,0,0,4.65,3.99v8.43H4.7V21.78a2.233,2.233,0,0,0,.6.08,3.254,3.254,0,0,0,2.31-1.15,5.82,5.82,0,0,0,1.65-4.96,4.643,4.643,0,0,0-.8-.06,5.863,5.863,0,0,0-3.77,1.36V10.23a.78.78,0,0,0-1.56,0V23.44H.8A.78.78,0,1,0,.8,25H24.19a.781.781,0,0,0,.78-.78A.766.766,0,0,0,24.2,23.44ZM20.3,7.85a3.9,3.9,0,1,1-3.9-3.9A3.905,3.905,0,0,1,20.3,7.85Zm-.39,6.07a1.521,1.521,0,0,1-.78.21,1.55,1.55,0,0,1-1.35-.78,1.865,1.865,0,0,1-.1-.2h0a5.484,5.484,0,0,0,2.67-1.54h0a1.274,1.274,0,0,1,.13.19A1.554,1.554,0,0,1,19.91,13.92Zm.95-2.93Zm2.56-3.14a1.562,1.562,0,0,1-1.56,1.56,1.5,1.5,0,0,1-.22-.02h0a5.5,5.5,0,0,0,0-3.08h0a1.635,1.635,0,0,1,.22-.02A1.562,1.562,0,0,1,23.42,7.85ZM20.86,4.7ZM17.78,2.34a1.575,1.575,0,0,1,1.35-.78,1.548,1.548,0,0,1,.78.21,1.566,1.566,0,0,1,.57,2.13,1.274,1.274,0,0,1-.13.19h0a5.407,5.407,0,0,0-2.67-1.54h0A1.355,1.355,0,0,1,17.78,2.34Zm-4.89-.57a1.521,1.521,0,0,1,.78-.21,1.55,1.55,0,0,1,1.35.78,1.865,1.865,0,0,1,.1.2h0a5.484,5.484,0,0,0-2.67,1.54h0a1.273,1.273,0,0,1-.13-.19A1.554,1.554,0,0,1,12.89,1.77ZM11.94,4.7ZM9.38,7.85a1.562,1.562,0,0,1,1.56-1.56,1.5,1.5,0,0,1,.22.02h0a5.5,5.5,0,0,0,0,3.08h0a1.635,1.635,0,0,1-.22.02A1.562,1.562,0,0,1,9.38,7.85Zm2.56,3.14Zm3.08,2.36a1.575,1.575,0,0,1-1.35.78,1.548,1.548,0,0,1-.78-.21,1.566,1.566,0,0,1-.57-2.13,1.273,1.273,0,0,1,.13-.19h0a5.407,5.407,0,0,0,2.67,1.54h0A1.024,1.024,0,0,1,15.02,13.35ZM5.41,18.51a4.166,4.166,0,0,1,2.3-1.19,4.248,4.248,0,0,1-1.2,2.3,1.957,1.957,0,0,1-1.21.69.808.808,0,0,1-.45-.15C4.56,19.75,4.75,19.17,5.41,18.51Z" transform="translate(477.98 3195)" fill="#419884"/>
  </g>
</svg>
