<svg xmlns="http://www.w3.org/2000/svg" width="21.614" height="24.99" viewBox="0 0 21.614 24.99">
  <g id="Group_765" data-name="Group 765" transform="translate(-24 -3195)">
    <path id="JNT1.001_Icons_25px-WC" d="M21.74,9.38H20.31V4.69h.78a.78.78,0,1,0,0-1.56h-.78V1.56A1.562,1.562,0,0,0,18.75,0H6.25A1.562,1.562,0,0,0,4.69,1.56V9.37H3.26a1.557,1.557,0,0,0-1.54,1.81,10.942,10.942,0,0,0,6.1,8.07h0v4.18a1.562,1.562,0,0,0,1.56,1.56h6.25a1.562,1.562,0,0,0,1.56-1.56V19.25h0a10.954,10.954,0,0,0,6.1-8.07A1.555,1.555,0,0,0,21.74,9.38ZM6.25,1.56h12.5V3.12H16.41a.78.78,0,0,0,0,1.56h2.34V9.37H6.25Zm-3,9.38H21.74a10.193,10.193,0,0,1-.4,1.56H3.91a.852.852,0,0,0-.23.04,9.679,9.679,0,0,1-.43-1.6Zm12.37,12.5H9.38V19.86a11.105,11.105,0,0,0,3.12.46,10.754,10.754,0,0,0,3.12-.46Zm2.97-6.94a9.367,9.367,0,0,1-12.18,0,9.467,9.467,0,0,1-2.03-2.44H20.62A9.145,9.145,0,0,1,18.59,16.5Z" transform="translate(22.302 3195)" fill="#419884"/>
  </g>
</svg>
