<?xml version="1.0" encoding="UTF-8"?><svg id="Layer_2" xmlns="http://www.w3.org/2000/svg" viewBox="0 0 2000 464.6"><defs><style>.cls-1{fill:#419884;}</style></defs><g id="Layer_1-2"><g><path class="cls-1" d="M1438.41,110.49c-69.77,0-110.49,33.6-133.75,97.57h-16.16l32.95-85.29h-174.47V452.32h174.47v-165.42c0-34.9,15.51-54.28,43.3-54.28,25.2,0,36.82,14.86,36.82,40.71v178.99h174.48V241.02c0-85.94-46.52-130.53-137.64-130.53Z"/><g><rect class="cls-1" x="940.66" y="122.77" width="174.47" height="329.55"/><path class="cls-1" d="M1071.2,0h-86.6C959.44,0,939.04,20.39,939.04,45.55h0c0,25.16,20.39,45.55,45.55,45.55h86.6c25.16,0,45.55-20.39,45.55-45.55h0C1116.75,20.39,1096.35,0,1071.2,0Z"/></g><path class="cls-1" d="M254.67,0l-.07,326.51c0,22.13-17.94,40.07-40.07,40.07s-40.07-17.94-40.07-40.07v-118H0v84.85c0,107.91,77.81,171.24,214.53,171.24s214.53-66.56,214.53-171.24V0H254.67Z"/><path class="cls-1" d="M2000,122.77h-222.28V27.14l-174.48,63.97v237.15c0,86.58,69.14,136.34,195.15,136.34s201.6-52.99,201.6-136.34v-51.05h-112.32v-.02h-59.56v64.2c0,13.92-11.28,25.2-25.2,25.2s-25.2-11.28-25.2-25.2v-115.22h222.28V122.77Z"/><path class="cls-1" d="M887.13,192.56c-35.54-52.35-107.91-82.07-202.25-82.07s-166.71,29.72-202.9,82.07c-18.09,26.49-27.79,58.8-27.79,94.98s9.7,68.5,27.79,95c36.18,52.33,107.91,82.06,202.9,82.06s166.71-29.72,202.25-82.06c18.1-26.49,28.43-58.16,28.43-95s-10.33-68.49-28.43-94.98Zm-156.7,138.29c0,25.16-20.4,45.55-45.55,45.55s-45.55-20.39-45.55-45.55v-86.6c0-25.16,20.39-45.55,45.55-45.55s45.55,20.39,45.55,45.55v86.6Z"/></g></g></svg>